<svg xmlns="http://www.w3.org/2000/svg" xmlns:xlink="http://www.w3.org/1999/xlink" id="Ebene_1" x="0px" y="0px" viewBox="0 0 783 128" style="enable-background:new 0 0 783 128;" xml:space="preserve"><style type="text/css">	.st0{fill:none;}	.st1{fill:#1e2022;}</style><polyline class="st0" points="-4.3,249.8 -1.3,-8.2 801.7,-7.2 798.7,249.8 "/><g>	<path class="st1" d="M159.6,106.8h16.2V77.2h18.3c20.3,0,36.9-10.8,36.9-31.5v-0.3c0-18.6-13.4-30.8-35-30.8h-36.3V106.8z   M175.8,62.6V29.4h18.8c12.1,0,19.9,5.7,19.9,16.5v0.3c0,9.6-7.6,16.5-19.9,16.5H175.8z M242.4,106.8h15.9V80.3  c0-18.4,9.7-27.5,23.7-27.5h0.9V36c-12.2-0.5-20.3,6.6-24.6,17V37.3h-15.9V106.8z M324.2,108.4c21.5,0,37.3-16.5,37.3-36.2v-0.3  c0-19.9-15.7-36.1-37-36.1c-21.3,0-37.1,16.5-37.1,36.3v0.3C287.4,92.2,303,108.4,324.2,108.4z M324.5,94.4  c-12.4,0-21.2-10.1-21.2-22.3v-0.3c0-12.1,8.2-22.1,20.9-22.1c12.5,0,21.3,10.1,21.3,22.4v0.3C345.6,84.4,337.4,94.4,324.5,94.4z   M374.4,127.9h15.9V96c4.9,6.5,12.1,12.2,23.7,12.2c16.5,0,32.3-13,32.3-36.1v-0.3c0-23.2-15.9-36.1-32.3-36.1  c-11.3,0-18.6,5.8-23.7,13V37.3h-15.9V127.9z M410.3,94.4c-10.8,0-20.3-9-20.3-22.3v-0.3c0-13.3,9.5-22.3,20.3-22.3  c10.8,0,19.9,8.8,19.9,22.3v0.3C430.1,85.9,421.2,94.4,410.3,94.4z M483.3,108.1c14.5,0,25.8-7.2,25.8-21.9V86  c0-12.5-11.5-17.1-21.6-20.3c-8.2-2.6-15.7-4.7-15.7-9.9v-0.3c0-4,3.6-6.8,9.7-6.8c5.8,0,12.9,2.5,19.6,6.6l6.3-11.3  c-7.4-4.9-16.9-7.9-25.5-7.9c-13.8,0-24.8,8-24.8,21.2v0.3c0,13.3,11.5,17.5,21.7,20.4c8.2,2.5,15.5,4.3,15.5,9.7V88  c0,4.6-4,7.5-10.8,7.5c-7.1,0-15.1-2.9-22.8-8.6l-7.1,10.8C462.5,104.6,473.5,108.1,483.3,108.1z M544.2,108  c6.1,0,10.4-1.3,14.4-3.6v-13c-3.2,1.6-6.3,2.4-9.9,2.4c-5.4,0-8.6-2.5-8.6-8.7V51h18.7V37.3h-18.7V18.2h-15.9v19.1h-8.8V51h8.8  v36.6C524.2,102.9,532.5,108,544.2,108z M591.8,108.3c10.7,0,17.9-4.5,22.7-10.1v8.7H630V65.6c0-9.1-2.4-16.5-7.5-21.5  c-4.9-5-12.6-7.8-23-7.8c-11.1,0-18.6,2.2-26.2,5.7l4.2,12.5c6.3-2.6,12.1-4.3,19.9-4.3c11.2,0,17.3,5.3,17.3,15.1V67  c-5.4-1.7-10.9-2.9-18.7-2.9c-17,0-28.7,7.4-28.7,22.4v0.3C567.1,100.8,578.7,108.3,591.8,108.3z M596.2,96.7  c-7.6,0-13.6-3.8-13.6-10.5v-0.3c0-7.2,6.1-11.6,16.3-11.6c6.3,0,11.7,1.2,15.8,2.8v4.7C614.8,90.6,606.8,96.7,596.2,96.7z   M677.9,108.4c13.6,0,21.6-5.4,28.4-13l-9.6-9.5c-5,5.1-10.5,8.6-18,8.6c-12.2,0-20.8-9.9-20.8-22.3v-0.3  c0-12.1,8.6-22.1,20.1-22.1c7.9,0,13,3.6,17.9,8.7l10-10.7c-6.6-7.1-14.8-12-27.8-12c-20.9,0-36.2,16.6-36.2,36.3v0.3  C641.9,92.2,657.2,108.4,677.9,108.4z M717.7,106.8h15.9V86.9l9.9-10.3l20.5,30.2h18.7l-28.6-41.2l27.7-28.3h-19.4l-28.8,30.8V10.7  h-15.9V106.8z"/>	<path class="st1" d="M115.7,8.2c0,23.5,0.1,47,0.1,70.6c1.2-2.2,2.5-4.3,3.7-6.5C99.9,85.1,80.9,99,61.7,112.3c2.5,0,5,0,7.6,0  C50,98.9,30.9,85.4,11.5,72.3c1.2,2.2,2.5,4.3,3.7,6.5c0-23.7,0-47.3,0-71c-2.5,2.5-5,5-7.5,7.5c38.5,0.1,77,0.3,115.5,0.4  c9.7,0,9.7-15,0-15C84.7,0.6,46.2,0.5,7.7,0.3c-4.1,0-7.5,3.4-7.5,7.5c0,23.4,0,46.7,0,70.1c0,4.6,2.9,6.8,6.2,9.1  c4.8,3.3,9.7,6.7,14.5,10c12.1,8.4,24.2,16.7,36.3,25.1c1.5,1,3,2,4.4,3.1c2,1.4,5.5,1.4,7.6,0c19.1-13.2,38.1-26.3,57.2-39.5  c4-2.8,4.3-6,4.3-10.3c0-6.1,0-12.2,0-18.3c0-14.7,0-29.4-0.1-44.1c0-1.6,0-3.2,0-4.9C130.7-1.4,115.7-1.4,115.7,8.2z"/>	<path class="st1" d="M58,7.8c0,15.4,0,30.8,0,46.1c0,9.7,15,9.7,15,0c0-15.4,0-30.8,0-46.1C73-1.9,58-1.9,58,7.8z"/>	<path class="st1" d="M11.6,85.3C30.8,77,50,68.7,69.3,60.4c3.8-1.6,4.6-7.1,2.7-10.3c-2.2-3.8-6.5-4.3-10.3-2.7  C42.5,55.8,23.2,64.1,4,72.4C0.3,74-0.6,79.4,1.3,82.6C3.6,86.5,7.8,87,11.6,85.3z"/>	<path class="st1" d="M127,72.4c-19.2-8.3-38.5-16.6-57.7-24.9c-3.8-1.6-8-1.2-10.3,2.7c-1.9,3.2-1.1,8.6,2.7,10.3  c19.2,8.3,38.5,16.6,57.7,24.9c3.8,1.6,8,1.2,10.3-2.7C131.5,79.4,130.7,74,127,72.4z"/></g></svg>